<svg width="16" height="16" viewBox="0 0 16 16" fill="none" xmlns="http://www.w3.org/2000/svg">
<path d="M14.15 0.00622716L5.35 1.20374C4.55 1.28483 4 2.00209 4 2.80043V11.0084C3.63125 10.9429 3.23125 10.9429 2.8 11.0334C1.28125 11.4325 0 12.7704 0 14.127C0 15.4835 1.28125 16.2975 2.8 15.8983C4.31875 15.4991 5.6 14.1363 5.6 12.7797V5.91897L14.4 4.7464V10.1602C14.0313 10.0947 13.6313 10.1228 13.2 10.235C11.6813 10.6342 10.4 11.972 10.4 13.3286C10.4 14.6852 11.6813 15.4991 13.2 15.0999C14.7188 14.7008 16 13.338 16 11.9814V1.60292C16 0.645527 15.1094 -0.0748543 14.15 0.00622716Z" fill="#333333"/>
</svg>
